<?xml version="1.0" standalone="no"?>
<!DOCTYPE svg PUBLIC "-//W3C//DTD SVG 20010904//EN"
 "http://www.w3.org/TR/2001/REC-SVG-20010904/DTD/svg10.dtd">
<svg version="1.0" xmlns="http://www.w3.org/2000/svg"
 width="300.000000pt" height="177.000000pt" viewBox="0 0 300.000000 177.000000"
 preserveAspectRatio="xMidYMid meet">
<metadata>
Created by potrace 1.10, written by Peter Selinger 2001-2011
</metadata>
<g transform="translate(0.000000,177.000000) scale(0.100000,-0.100000)"
fill="#000000" stroke="none">
<path d="M382 1698 l-2 -78 -54 0 -55 0 -4 53 -3 52 -2 -52 -2 -53 -119 0
-120 0 -4 53 c-2 28 -3 3 -3 -58 0 -60 1 -86 3 -57 l4 52 180 0 179 0 0 -179
0 -180 -180 0 -179 -1 -4 67 c-2 38 -3 12 -3 -57 0 -69 1 -101 3 -72 l4 52
180 0 179 0 0 -55 0 -55 -185 0 -185 0 2 -57 2 -58 3 53 4 52 180 -1 179 0 0
-119 0 -119 -179 0 -180 -1 -4 52 c-2 29 -3 4 -3 -57 0 -60 1 -86 3 -57 l4 52
180 0 179 0 0 -55 0 -55 -185 0 -185 0 2 -72 2 -73 3 68 4 67 179 -1 180 0 0
-120 0 -119 -54 0 -55 0 -4 52 -3 53 -2 -52 -2 -53 -119 0 -120 0 -4 52 -3 53
-2 -57 -2 -58 184 0 185 0 4 -38 4 -37 1 38 2 37 179 0 180 0 4 -32 4 -33 1
33 2 32 179 0 180 0 4 -42 4 -43 1 43 2 42 179 0 180 0 4 -52 c2 -29 3 3 3 72
0 69 -1 95 -3 58 l-4 -67 -179 0 -179 -1 -4 102 -3 103 -2 -102 -2 -102 -180
0 -180 -1 0 120 0 119 128 4 127 3 -127 2 -128 2 0 54 0 55 43 4 42 4 -42 1
-42 2 -4 83 -3 82 -2 -82 -2 -83 -54 0 -55 0 -4 53 -3 52 -2 -52 -2 -53 -120
0 -120 0 0 120 0 120 173 3 172 3 -172 2 -173 2 0 55 0 55 179 0 180 0 4 -47
3 -48 2 47 c2 40 5 47 25 51 l22 4 -22 2 c-23 1 -23 4 -23 120 l0 120 53 4 52
3 -52 2 -53 2 0 55 0 55 119 0 120 0 4 -47 3 -48 2 47 c2 46 2 47 40 51 l37 4
-37 1 -38 2 0 67 c0 36 -3 63 -7 60 -3 -4 -5 -34 -4 -67 l2 -60 -120 0 -120 0
-4 78 c-1 42 -4 -41 -5 -185 l-2 -262 -180 0 -180 -1 0 119 0 120 53 4 52 3
-52 2 -53 2 0 55 0 55 178 2 c97 1 154 3 125 5 l-52 4 -4 52 -3 52 -2 -52 -2
-53 -120 0 -119 0 -4 78 -3 77 -2 -77z m368 -883 l0 -55 -180 0 -180 0 0 55 0
55 180 0 180 0 0 -55z m0 -186 l0 -119 -55 0 -55 0 -2 53 -2 52 -3 -52 -4 -53
-120 0 -119 0 0 120 0 120 180 -1 180 0 0 -120z"/>
<path d="M1738 1753 c-2 -10 -1 -36 3 -58 6 -37 6 -36 8 18 1 57 -3 73 -11 40z"/>
<path d="M1863 1690 c0 -47 2 -66 4 -42 2 23 2 61 0 85 -2 23 -4 4 -4 -43z"/>
<path d="M2112 1698 l-2 -77 -117 -4 -118 -3 118 -2 118 -2 -2 -70 c-1 -39 1
-73 5 -77 3 -3 6 28 6 70 l0 77 54 0 55 0 4 -52 3 -53 2 53 2 52 180 0 180 0
0 -180 0 -180 -54 0 -55 0 -4 53 -3 52 -2 -52 -2 -53 -119 0 -120 0 -4 53 c-2
28 -4 2 -5 -60 l-2 -112 -27 -4 -28 -4 27 -2 c25 -1 27 -4 31 -53 l3 -53 2 53
2 52 119 0 120 0 4 -52 3 -53 2 53 2 52 55 0 55 0 0 -120 0 -120 -55 0 -54 0
-4 68 -3 67 -2 -67 -2 -68 -120 0 -119 0 -4 68 -3 67 -2 -67 -2 -68 -55 0 -54
0 -4 93 -3 92 -2 -92 -2 -93 -119 0 -120 0 -4 28 -4 27 -2 -27 c-1 -25 -5 -27
-48 -31 l-48 -3 48 -2 47 -2 0 -55 0 -55 -87 -1 c-49 -1 -76 -4 -61 -6 26 -4
27 -7 31 -71 l3 -67 2 68 2 67 55 0 55 0 0 -120 0 -120 -54 0 -55 0 -4 52 -3
53 -2 -52 -2 -52 -117 -4 c-95 -2 -83 -3 59 -5 l177 -2 4 -62 3 -63 2 63 2 62
119 0 120 0 4 -52 3 -53 2 53 2 52 239 0 240 0 4 -32 4 -33 1 33 2 32 180 0
180 0 0 -54 c0 -52 -1 -55 -27 -59 l-28 -4 28 -2 27 -1 2 -192 c1 -106 3 -164
5 -128 2 35 9 68 16 72 9 6 9 8 0 8 -10 0 -13 31 -13 119 0 86 3 121 13 124
10 4 10 6 0 6 -9 1 -13 19 -13 55 0 34 5 56 13 59 10 4 10 6 0 6 -10 1 -13 32
-13 120 0 86 3 121 13 124 10 4 10 6 0 6 -9 1 -13 19 -13 55 0 34 5 56 13 59
10 4 10 6 0 6 -10 1 -13 32 -13 120 0 86 3 121 13 124 10 4 10 6 0 6 -9 1 -13
19 -13 55 0 34 5 56 13 59 10 4 10 6 0 6 -10 1 -13 32 -13 120 0 86 3 121 13
124 10 4 10 6 0 6 -9 1 -13 19 -13 56 0 37 4 55 13 55 9 0 9 2 0 8 -7 4 -13
39 -16 82 l-3 75 -2 -77 -2 -78 -54 0 -55 0 -4 53 -3 52 -2 -52 -2 -53 -120 0
-119 0 -4 78 -3 77 -2 -77 -2 -78 -55 0 -54 0 -4 78 -3 77 -2 -77 -2 -78 -119
0 -120 0 -4 53 -3 52 -2 -52 -2 -53 -55 0 -54 0 -4 78 -3 77 -2 -77z m858
-268 l0 -180 -55 0 -55 0 -2 53 -2 52 -3 -52 -4 -52 -67 -4 c-38 -2 -12 -4 61
-5 l127 -2 0 -55 0 -55 -180 0 -180 0 0 55 0 55 53 2 52 2 -52 3 -53 4 0 120
0 119 53 2 52 2 -52 3 -53 4 0 55 0 54 180 0 180 0 0 -180z m-370 -245 l0 -55
-180 0 -180 0 0 55 0 55 180 0 180 0 0 -55z m250 -185 l0 -120 -120 0 -120 0
0 120 0 120 120 0 120 0 0 -120z m120 0 l0 -120 -55 0 -55 0 0 120 0 120 55 0
55 0 0 -120z m-860 -185 l0 -55 -120 0 -120 0 0 55 0 55 120 0 120 0 0 -55z
m120 0 l0 -55 -55 0 -55 0 0 55 0 55 55 0 55 0 0 -55z m370 0 l0 -55 -180 0
-180 0 0 55 0 55 180 0 180 0 0 -55z m370 0 l0 -55 -180 0 -180 0 0 55 0 55
180 0 180 0 0 -55z m-860 -185 l0 -120 -120 0 -120 0 0 120 0 120 120 0 120 0
0 -120z m122 68 l2 -53 3 53 4 52 120 0 119 0 2 -67 2 -68 3 68 4 67 54 0 55
0 0 -120 0 -120 -55 0 -55 0 -2 53 -2 52 -3 -52 -4 -53 -120 0 -119 0 -2 53
-2 52 -3 -52 -4 -53 -55 0 -54 0 0 120 0 120 55 0 55 0 2 -52z m618 -68 l0
-120 -120 0 -120 0 0 120 0 120 120 0 120 0 0 -120z m120 0 l0 -120 -55 0 -55
0 0 120 0 120 55 0 55 0 0 -120z"/>
<path d="M2782 1493 l67 -4 4 -67 3 -67 2 73 2 72 -72 -2 -73 -2 67 -3z"/>
<path d="M1353 1683 c-18 -7 -16 -48 2 -63 16 -13 55 -5 55 12 0 23 254 -17
380 -60 l55 -19 -90 -5 c-68 -4 -110 -13 -171 -37 -80 -31 -187 -93 -231 -133
-13 -12 -39 -21 -66 -23 -38 -2 -50 2 -70 24 -14 14 -27 37 -29 51 -4 33 -51
41 -67 11 -15 -27 -4 -50 28 -58 14 -3 40 -17 57 -30 38 -28 44 -80 14 -108
-11 -10 -34 -40 -51 -66 -17 -26 -39 -51 -50 -54 -25 -8 -102 53 -96 76 11 43
-51 69 -72 30 -12 -21 5 -51 30 -54 9 -2 38 -22 64 -45 52 -46 52 -46 40 -163
-10 -87 9 -130 74 -165 l46 -25 -59 6 c-105 10 -206 71 -206 125 0 15 -7 33
-15 40 -17 14 -51 5 -59 -16 -7 -19 10 -54 28 -54 7 0 32 -18 56 -40 59 -54
137 -82 217 -78 35 2 63 -1 63 -5 0 -4 13 -12 28 -18 23 -8 32 -21 48 -72 14
-44 27 -66 46 -76 47 -27 69 -6 142 138 52 103 71 131 87 131 11 0 30 11 42
24 17 17 36 24 83 28 92 9 169 56 189 117 4 14 21 20 71 25 164 17 244 120
199 255 -56 170 -355 325 -667 348 -47 4 -82 11 -89 19 -12 14 -33 17 -56 7z
m601 -192 c65 -32 134 -93 172 -153 31 -48 30 -54 -3 -30 -49 34 -101 45 -187
40 -45 -3 -97 -12 -117 -21 -35 -14 -37 -14 -77 17 -23 17 -41 39 -42 49 0 23
-36 57 -60 57 -27 0 -60 -35 -60 -63 0 -47 45 -67 100 -43 9 3 28 -4 45 -18
l29 -23 -44 -23 c-25 -12 -70 -42 -101 -65 l-55 -44 -100 54 c-85 46 -100 57
-105 83 -6 28 -2 34 50 72 190 141 406 184 555 111z m-292 -91 c4 -28 1 -33
-19 -36 -19 -3 -23 1 -23 21 0 18 5 25 20 25 11 0 21 -4 22 -10z m-339 -89 c4
-17 -14 -41 -31 -41 -21 0 -34 28 -23 48 13 24 47 19 54 -7z m756 -6 c38 -19
71 -62 71 -90 0 -35 -41 -88 -85 -110 -22 -10 -67 -21 -100 -23 l-60 -4 -3 36
c-3 44 -31 103 -72 150 l-31 34 58 12 c32 7 63 14 68 16 21 8 127 -6 154 -21z
m-219 -131 c20 -40 27 -94 13 -94 -44 1 -283 76 -283 89 0 7 53 43 130 89 l55
32 33 -37 c17 -21 41 -56 52 -79z m-452 46 c38 -22 83 -45 101 -51 l33 -11
-32 -33 c-18 -19 -38 -31 -45 -29 -17 7 -37 -21 -33 -48 2 -16 11 -24 27 -26
28 -4 51 20 44 46 -2 11 8 28 27 46 l32 28 91 -30 c51 -17 122 -36 158 -43 57
-10 66 -15 62 -30 -10 -36 -78 -86 -132 -98 -75 -16 -91 -14 -117 14 -28 30
-57 32 -84 5 -19 -19 -23 -20 -84 -6 -35 8 -99 29 -142 46 -165 66 -178 89
-107 188 37 53 49 63 69 59 12 -2 29 0 36 4 19 13 20 12 96 -31z m-164 -215
c52 -25 135 -56 184 -68 129 -31 130 -34 44 -195 -58 -109 -71 -127 -94 -130
-24 -3 -28 2 -48 62 -20 60 -20 67 -6 82 22 21 20 50 -4 74 -26 26 -55 25 -81
-1 -37 -37 -110 2 -130 72 -15 49 3 149 27 149 8 0 57 -20 108 -45z m366 -79
c0 -20 -25 -37 -44 -30 -9 3 -16 15 -16 25 0 14 7 19 30 19 19 0 30 -5 30 -14z
m-307 -135 c6 -23 0 -31 -23 -31 -22 0 -44 25 -35 40 11 18 52 12 58 -9z"/>
<path d="M1805 1467 c-26 -20 -13 -67 18 -67 45 0 65 50 28 70 -25 13 -24 13
-46 -3z"/>
<path d="M1441 1337 c-25 -31 13 -66 46 -42 14 11 16 18 7 32 -14 23 -38 28
-53 10z"/>
<path d="M1954 1223 c-5 -19 -2 -30 11 -40 11 -7 22 -13 25 -13 3 0 14 6 25
13 13 10 16 21 11 40 -5 22 -12 27 -36 27 -24 0 -31 -5 -36 -27z"/>
<path d="M1280 1180 c-38 -38 -14 -100 38 -100 27 0 62 33 62 58 0 23 -40 62
-63 62 -9 0 -26 -9 -37 -20z m52 -58 c-13 -10 -19 -9 -32 4 -13 14 -13 17 4
29 17 13 21 12 32 -3 11 -14 10 -19 -4 -30z"/>
<path d="M1594 1066 c-10 -26 4 -48 28 -44 17 2 23 10 23 28 0 18 -6 26 -23
28 -13 2 -25 -3 -28 -12z"/>
<path d="M1183 954 c-7 -3 -13 -16 -13 -29 0 -44 50 -60 74 -22 20 32 -22 67
-61 51z"/>
<path d="M1368 873 c23 -2 59 -2 80 0 20 2 1 4 -43 4 -44 0 -61 -2 -37 -4z"/>
<path d="M1142 1643 c-24 -10 -34 -53 -18 -79 34 -50 106 -33 106 26 0 47 -41
72 -88 53z m58 -47 c0 -13 -20 -26 -41 -26 -5 0 -9 9 -9 20 0 15 7 20 25 20
15 0 25 -6 25 -14z"/>
<path d="M1312 1518 c-32 -32 8 -80 48 -58 34 18 19 70 -20 70 -9 0 -21 -5
-28 -12z"/>
<path d="M10 1493 c0 -5 58 -8 130 -8 72 0 130 3 130 8 0 4 -58 7 -130 7 -72
0 -130 -3 -130 -7z"/>
<path d="M515 1494 c46 -7 125 -8 125 -1 0 4 -33 6 -72 6 -40 -1 -64 -3 -53
-5z"/>
<path d="M2232 1443 l2 -58 3 53 4 52 119 0 119 0 4 -67 3 -68 2 73 2 72 -130
0 -130 0 2 -57z"/>
<path d="M920 1450 c-11 -11 -20 -29 -20 -40 0 -11 9 -29 20 -40 11 -11 29
-20 40 -20 11 0 29 9 40 20 11 11 20 29 20 40 0 11 -9 29 -20 40 -11 11 -29
20 -40 20 -11 0 -29 -9 -40 -20z m60 -41 c0 -12 -7 -19 -19 -19 -22 0 -34 23
-19 38 15 15 38 3 38 -19z"/>
<path d="M833 1313 c-19 -7 -16 -50 4 -57 24 -10 51 20 37 41 -12 19 -23 24
-41 16z"/>
<path d="M1097 1304 c-13 -14 -7 -43 12 -53 23 -13 45 8 39 36 -3 18 -38 30
-51 17z"/>
<path d="M792 1144 c-43 -30 -17 -104 36 -104 25 0 62 33 62 55 0 19 -44 65
-62 65 -8 0 -24 -7 -36 -16z m51 -56 c-20 -22 -29 -23 -37 -2 -10 26 12 46 34
31 18 -10 18 -13 3 -29z"/>
<path d="M967 1084 c-12 -13 -8 -52 7 -57 8 -3 22 1 33 8 14 11 16 18 7 32
-12 19 -36 28 -47 17z"/>
<path d="M1590 795 c-26 -32 13 -81 48 -59 34 22 22 74 -18 74 -10 0 -23 -7
-30 -15z"/>
<path d="M13 415 c0 -44 2 -70 4 -58 2 12 12 24 21 26 16 4 16 5 0 6 -13 1
-18 13 -21 54 -2 35 -3 26 -4 -28z"/>
<path d="M140 393 c-40 -5 -60 -25 -60 -63 0 -43 20 -59 84 -66 44 -5 57 -4
52 4 -4 7 -25 12 -46 12 -29 0 -42 5 -50 19 -26 50 1 81 71 81 27 0 49 -4 49
-10 0 -5 -22 -10 -50 -10 -47 0 -50 -2 -50 -25 0 -18 5 -25 19 -25 11 0 21 8
23 17 2 10 13 18 28 18 97 4 100 5 100 24 0 15 -10 19 -52 25 -29 3 -60 5 -68
4 -8 -1 -31 -3 -50 -5z"/>
<path d="M902 393 c-24 -3 -32 -9 -30 -21 2 -11 11 -16 25 -14 12 2 24 -2 28
-8 8 -13 85 -13 85 0 0 6 -11 10 -25 10 -14 0 -25 5 -25 10 0 6 15 10 34 10
36 0 66 -31 66 -68 0 -20 -29 -52 -48 -52 -7 0 -12 -3 -12 -6 0 -13 64 -84 76
-84 25 0 26 22 3 46 l-23 24 22 16 c17 12 22 25 22 63 0 28 -6 53 -13 60 -15
12 -135 21 -185 14z"/>
<path d="M1185 392 l-40 -7 0 -94 0 -93 43 -14 c24 -9 68 -14 100 -12 49 3 57
6 57 23 0 15 -8 21 -32 23 -26 3 -32 0 -27 -12 5 -13 -2 -16 -37 -16 -67 0
-90 26 -82 92 4 26 2 38 -6 38 -8 0 -4 12 9 30 19 26 27 30 71 30 27 0 49 -4
49 -10 0 -5 -22 -10 -50 -10 -47 0 -50 -2 -50 -25 0 -18 5 -25 20 -25 11 0 20
7 20 15 0 16 2 17 60 21 22 1 45 3 50 3 19 2 11 41 -9 41 -10 0 -38 2 -62 4
-24 2 -62 1 -84 -2z"/>
<path d="M2596 393 c-3 -4 -6 -19 -6 -35 0 -23 4 -28 23 -28 20 0 23 4 19 29
-4 28 -23 46 -36 34z"/>
<path d="M350 285 c0 -91 2 -104 16 -98 11 4 14 12 9 27 -9 29 -6 123 5 152 8
20 7 24 -10 24 -19 0 -20 -7 -20 -105z"/>
<path d="M400 350 c0 -33 3 -40 20 -40 17 0 20 7 20 40 0 33 -3 40 -20 40 -17
0 -20 -7 -20 -40z"/>
<path d="M480 354 c0 -40 13 -38 28 6 10 27 9 30 -9 30 -15 0 -19 -7 -19 -36z"/>
<path d="M533 354 c4 -21 1 -44 -6 -55 -9 -14 -9 -24 -1 -37 6 -9 9 -32 6 -50
-3 -23 0 -33 12 -38 9 -4 19 -4 22 -1 3 2 6 52 8 111 l2 106 -24 0 c-23 0 -24
-3 -19 -36z"/>
<path d="M653 310 c-50 -93 -54 -120 -19 -120 14 0 28 -4 31 -10 3 -5 28 -10
55 -10 27 0 52 5 55 10 3 5 -1 10 -10 10 -8 0 -18 7 -21 15 -8 19 -24 19 -24
0 0 -19 -40 -20 -65 -1 -18 13 -19 17 -6 53 38 105 95 149 133 102 16 -20 18
-36 15 -101 -4 -62 -2 -78 10 -82 26 -11 31 2 31 91 0 118 -4 123 -81 123
l-62 0 -42 -80z"/>
<path d="M1550 285 c0 -85 3 -103 14 -99 10 4 12 20 9 67 -3 34 -1 79 5 100 9
33 9 37 -9 37 -18 0 -19 -8 -19 -105z"/>
<path d="M1600 360 c0 -25 4 -30 23 -30 20 0 23 4 19 30 -3 21 -10 30 -23 30
-14 0 -19 -7 -19 -30z"/>
<path d="M2538 286 c3 -89 6 -104 18 -99 11 4 13 12 9 27 -9 28 -9 71 0 129 6
42 5 47 -11 47 -18 0 -19 -8 -16 -104z"/>
<path d="M1382 287 c3 -90 4 -92 28 -96 25 -3 25 -3 6 18 -16 18 -18 31 -13
90 5 56 3 70 -9 75 -12 5 -14 -9 -12 -87z"/>
<path d="M1443 373 c-18 -7 -16 -43 2 -43 8 0 15 -6 15 -14 0 -8 -7 -16 -15
-20 -9 -3 -15 -19 -15 -41 0 -24 4 -35 15 -35 18 0 19 -12 4 -27 -14 -14 22
-27 52 -18 26 9 21 39 -9 43 -18 3 -22 10 -22 37 0 27 4 34 22 37 31 4 34 26
4 38 -14 5 -26 16 -26 24 0 18 -11 25 -27 19z"/>
<path d="M2788 375 c-1 -2 -1 -43 2 -92 5 -83 6 -88 28 -91 l24 -4 -23 31
c-21 28 -22 34 -11 82 7 28 12 54 12 59 0 8 -26 21 -32 15z"/>
<path d="M2846 373 c-11 -11 -6 -41 7 -46 10 -3 10 -9 0 -26 -16 -26 -17 -81
-2 -81 6 0 9 -9 6 -20 -4 -15 1 -22 19 -26 28 -7 55 11 47 32 -3 8 -14 14 -24
14 -15 0 -19 7 -19 35 0 27 4 35 18 35 10 0 21 3 25 6 11 11 -5 34 -24 34 -12
0 -19 7 -19 19 0 19 -23 35 -34 24z"/>
<path d="M703 296 c-18 -37 -33 -69 -33 -71 0 -3 8 -5 18 -5 25 0 55 66 50
109 -3 32 -4 31 -35 -33z"/>
<path d="M1835 332 c-29 -7 -30 -9 -33 -70 -3 -53 0 -63 15 -68 10 -3 28 -11
40 -16 21 -11 113 -5 133 7 13 8 13 132 1 139 -16 10 -124 15 -156 8z m118
-41 c22 -38 21 -50 -5 -78 -29 -31 -79 -31 -114 2 -21 19 -25 30 -19 52 9 37
33 52 80 53 34 0 43 -5 58 -29z"/>
<path d="M1850 260 c0 -33 3 -40 20 -40 15 0 20 7 20 28 0 15 5 33 12 40 9 9
5 12 -20 12 -31 0 -32 -2 -32 -40z"/>
<path d="M2040 280 c0 -74 6 -90 35 -90 13 0 27 -5 31 -11 4 -6 32 -9 73 -7
l66 4 3 68 c3 80 -1 98 -23 90 -11 -4 -15 -21 -15 -58 -1 -61 -17 -86 -56 -86
-74 0 -107 40 -87 105 9 29 8 34 -8 38 -17 5 -19 -1 -19 -53z"/>
<path d="M2102 328 c-6 -8 -10 -34 -9 -58 2 -37 6 -46 22 -48 18 -2 20 3 19
48 -2 56 -14 79 -32 58z"/>
<path d="M2330 332 l-35 -7 0 -65 c0 -63 1 -64 30 -71 17 -4 40 -11 53 -14 14
-5 22 -3 22 4 0 6 -11 11 -25 11 -54 0 -87 78 -47 112 9 9 38 18 65 21 41 4
47 2 47 -14 0 -10 5 -21 10 -24 14 -9 13 -51 -2 -75 -10 -15 -10 -22 -1 -31
10 -10 7 -17 -9 -31 -24 -21 -75 -21 -70 0 1 7 -9 12 -28 12 -27 0 -34 -7 -28
-27 1 -5 9 -7 16 -5 7 2 20 -2 28 -9 17 -14 109 -6 130 12 16 13 20 184 5 193
-16 10 -124 15 -161 8z"/>
<path d="M2670 332 c0 -2 9 -17 21 -33 15 -22 20 -41 17 -77 -3 -41 -1 -47 17
-47 18 0 20 7 22 59 2 72 -7 92 -47 98 -16 3 -30 3 -30 0z"/>
<path d="M1700 300 c15 -21 20 -42 19 -75 -3 -49 3 -60 26 -52 11 5 15 21 15
62 0 73 -12 95 -51 95 l-30 0 21 -30z"/>
<path d="M2161 298 c1 -18 3 -25 6 -15 2 9 9 17 14 17 5 0 9 7 9 15 0 8 -7 15
-15 15 -10 0 -15 -10 -14 -32z"/>
<path d="M215 304 c24 -7 54 -43 55 -65 0 -27 -34 -49 -75 -49 -39 0 -39 13 0
23 11 3 -8 5 -42 6 -58 1 -63 -1 -63 -20 0 -15 4 -19 16 -15 9 4 23 1 30 -5
20 -17 153 -7 164 11 12 19 12 81 1 99 -5 7 -30 15 -57 17 -27 2 -40 1 -29 -2z"/>
<path d="M1263 290 c-4 -15 -14 -20 -39 -20 -30 0 -34 -3 -34 -25 0 -18 5 -25
20 -25 13 0 20 7 20 20 0 17 7 20 45 20 37 0 45 3 45 19 0 33 -49 42 -57 11z"/>
<path d="M910 293 l-35 -4 1 -52 c1 -29 4 -51 8 -50 29 8 31 10 19 35 -9 21
-8 28 8 42 11 9 36 16 57 16 27 0 33 3 22 10 -8 5 -22 9 -30 8 -8 -1 -31 -3
-50 -5z"/>
<path d="M1602 238 c2 -48 7 -63 18 -63 11 0 16 14 18 50 2 27 8 55 14 62 8
10 3 13 -21 13 l-32 0 3 -62z"/>
<path d="M2347 293 c-4 -3 -7 -21 -7 -40 0 -28 4 -33 24 -33 19 0 22 4 18 25
-2 14 1 32 8 40 10 13 9 15 -12 15 -14 0 -28 -3 -31 -7z"/>
<path d="M2592 238 c2 -48 7 -63 18 -63 11 0 16 14 18 50 2 27 8 55 14 62 8
10 3 13 -21 13 l-32 0 3 -62z"/>
<path d="M437 273 l-38 -4 3 -47 c2 -35 7 -48 21 -50 14 -3 17 4 17 38 0 33 4
43 20 47 11 3 20 9 20 14 0 5 -1 8 -2 7 -2 -1 -20 -3 -41 -5z"/>
<path d="M930 216 c0 -35 4 -46 15 -46 21 0 29 24 18 57 -16 46 -33 40 -33
-11z"/>
<path d="M13 185 c0 -33 2 -45 4 -27 2 18 2 45 0 60 -2 15 -4 0 -4 -33z"/>
<path d="M480 210 c0 -22 4 -28 15 -24 16 7 18 14 9 38 -10 26 -24 18 -24 -14z"/>
<path d="M1123 75 c0 -44 2 -61 4 -37 2 23 2 59 0 80 -2 20 -4 1 -4 -43z"/>
<path d="M381 68 c0 -32 2 -58 7 -58 4 0 6 19 4 43 -5 70 -10 76 -11 15z"/>
<path d="M752 65 l-2 -60 57 5 58 5 -52 3 -52 3 -4 52 -3 52 -2 -60z"/>
<path d="M1493 60 c0 -36 2 -50 4 -32 2 17 2 47 0 65 -2 17 -4 3 -4 -33z"/>
<path d="M1863 65 c0 -33 2 -45 4 -27 2 18 2 45 0 60 -2 15 -4 0 -4 -33z"/>
<path d="M2601 68 c0 -32 2 -58 7 -58 4 0 6 19 4 43 -5 70 -10 76 -11 15z"/>
<path d="M2258 13 c18 -2 45 -2 60 0 15 2 0 4 -33 4 -33 0 -45 -2 -27 -4z"/>
<path d="M2658 13 c18 -2 45 -2 60 0 15 2 0 4 -33 4 -33 0 -45 -2 -27 -4z"/>
</g>
</svg>
